<?xml version="1.0" standalone="no"?>
<!DOCTYPE svg PUBLIC "-//W3C//DTD SVG 20010904//EN"
 "http://www.w3.org/TR/2001/REC-SVG-20010904/DTD/svg10.dtd">
<svg version="1.0" xmlns="http://www.w3.org/2000/svg"
 width="96.000000pt" height="96.000000pt" viewBox="0 0 96.000000 96.000000"
 preserveAspectRatio="xMidYMid meet">
<metadata>
Created by potrace 1.11, written by Peter Selinger 2001-2013
</metadata>
<g transform="translate(0.000000,96.000000) scale(0.100000,-0.100000)"
fill="#000000" stroke="none">
<path d="M132 798 c-9 -9 -12 -78 -12 -249 0 -201 -2 -238 -15 -243 -9 -3 -15
-18 -15 -36 0 -34 26 -50 73 -45 21 3 37 -6 67 -36 52 -53 89 -53 137 -2 l35
37 106 1 105 1 38 -38 c26 -27 46 -38 67 -38 32 0 78 31 87 59 4 14 14 17 44
15 21 -1 43 1 50 5 20 13 23 58 4 76 -10 11 -17 36 -18 71 -3 57 -12 72 -117
188 -43 48 -45 49 -106 50 l-62 1 0 85 c0 54 -5 91 -12 98 -17 17 -439 17
-456 0z m288 -81 c0 -36 5 -68 12 -75 7 -7 39 -12 75 -12 l63 0 0 -185 c0
-102 -3 -186 -7 -186 -5 -1 -44 -2 -88 -3 -79 -2 -81 -2 -100 28 -39 60 -112
59 -150 -1 -14 -22 -26 -30 -40 -28 -11 2 -23 4 -27 4 -5 1 -8 118 -8 261 l0
260 135 0 135 0 0 -63z m148 0 l3 -58 -58 3 -58 3 -3 58 -3 58 58 -3 58 -3 3
-58z m167 -159 c11 -13 40 -48 65 -77 25 -30 48 -60 51 -69 7 -20 3 -142 -6
-150 -14 -14 -31 -6 -50 23 -40 58 -110 58 -150 0 -41 -58 -45 -46 -45 128 0
90 3 166 6 169 3 3 29 4 57 3 40 -3 56 -9 72 -27z m-395 -278 c11 -11 20 -29
20 -40 0 -26 -34 -60 -60 -60 -26 0 -60 34 -60 60 0 11 9 29 20 40 11 11 29
20 40 20 11 0 29 -9 40 -20z m420 0 c11 -11 20 -29 20 -40 0 -26 -34 -60 -60
-60 -11 0 -29 9 -40 20 -11 11 -20 29 -20 40 0 11 9 29 20 40 11 11 29 20 40
20 11 0 29 -9 40 -20z"/>
<path d="M180 705 c0 -12 17 -15 90 -15 73 0 90 3 90 15 0 12 -17 15 -90 15
-73 0 -90 -3 -90 -15z"/>
<path d="M180 645 c0 -12 17 -15 90 -15 73 0 90 3 90 15 0 12 -17 15 -90 15
-73 0 -90 -3 -90 -15z"/>
<path d="M180 585 c0 -13 23 -15 150 -15 127 0 150 2 150 15 0 13 -23 15 -150
15 -127 0 -150 -2 -150 -15z"/>
<path d="M180 525 c0 -13 23 -15 150 -15 127 0 150 2 150 15 0 13 -23 15 -150
15 -127 0 -150 -2 -150 -15z"/>
<path d="M180 465 c0 -13 23 -15 150 -15 127 0 150 2 150 15 0 13 -23 15 -150
15 -127 0 -150 -2 -150 -15z"/>
<path d="M180 405 c0 -13 23 -15 150 -15 127 0 150 2 150 15 0 13 -23 15 -150
15 -127 0 -150 -2 -150 -15z"/>
<path d="M480 720 c0 -27 3 -30 30 -30 20 0 30 5 30 15 0 8 -7 15 -15 15 -8 0
-15 7 -15 15 0 8 -7 15 -15 15 -10 0 -15 -10 -15 -30z"/>
<path d="M634 545 c-3 -7 -4 -34 -2 -61 l3 -49 68 -1 c102 0 104 6 34 89 -26
31 -94 46 -103 22z"/>
<path d="M630 390 c0 -12 8 -17 30 -17 21 0 30 5 30 16 0 11 -10 17 -30 17
-22 1 -30 -3 -30 -16z"/>
<path d="M274 256 c-10 -26 4 -48 28 -44 17 2 23 10 23 28 0 18 -6 26 -23 28
-13 2 -25 -3 -28 -12z"/>
<path d="M695 250 c-8 -26 6 -43 31 -38 13 2 19 12 19 28 0 34 -40 41 -50 10z"/>
</g>
</svg>
